<svg xmlns="http://www.w3.org/2000/svg" xmlns:xlink="http://www.w3.org/1999/xlink" xmlns:lucid="lucid" width="1935.85" height="1487.74"><g transform="translate(0 0)" lucid:page-tab-id="0_0"><path d="M0 0h985.85v761.8H0z" fill="#fff"/><path d="M120 21c0-1.66 1.34-3 3-3h294c1.66 0 3 1.34 3 3v42c0 1.66-1.34 3-3 3H123c-1.66 0-3-1.34-3-3z" fill="none"/><use xlink:href="#a" transform="matrix(1,0,0,1,120,18) translate(0 29.396484375)"/><use xlink:href="#b" transform="matrix(1,0,0,1,120,18) translate(86.4140625 29.396484375)"/><path d="M500 20.92c0-1.65 1.34-3 3-3h455.52c1.65 0 3 1.35 3 3v42c0 1.66-1.35 3-3 3H503c-1.66 0-3-1.34-3-3z" fill="none"/><use xlink:href="#c" transform="matrix(1,0,0,1,500,17.924528301886795) translate(83.9384765625 29.396484375)"/><use xlink:href="#d" transform="matrix(1,0,0,1,500,17.924528301886795) translate(159.55078125 29.396484375)"/><use xlink:href="#e" transform="matrix(1,0,0,1,500,17.924528301886795) translate(267.568359375 29.396484375)"/><use xlink:href="#f" transform="matrix(1,0,0,1,500,17.924528301886795) translate(310.775390625 29.396484375)"/><use xlink:href="#g" transform="matrix(1,0,0,1,500,17.924528301886795) translate(375.5859375 29.396484375)"/><use xlink:href="#h" transform="matrix(1,0,0,1,500,17.924528301886795) translate(418.79296875 29.396484375)"/><path d="M960 147c0-1.66 1.34-3 3-3h194c1.66 0 3 1.34 3 3v130c0 1.66-1.34 3-3 3H963c-1.66 0-3-1.34-3-3z" fill="#95d6cb"/><path d="M960 147c0-1.66 1.34-3 3-3h194c1.66 0 3 1.34 3 3v130c0 1.66-1.34 3-3 3H963c-1.66 0-3-1.34-3-3zM960 184h200M1020 184v96" stroke="#00987e" stroke-width="4" fill="none"/><use xlink:href="#i" transform="matrix(1,0,0,1,970,144) translate(62.074999999999996 23.6)"/><use xlink:href="#j" transform="matrix(1,0,0,1,965,186.5) translate(13 17.1)"/><use xlink:href="#k" transform="matrix(1,0,0,1,1025,186.5) translate(0 17.1)"/><use xlink:href="#l" transform="matrix(1,0,0,1,1025,218.5) translate(0 17.1)"/><use xlink:href="#m" transform="matrix(1,0,0,1,965,250.5) translate(13.524999999999999 17.1)"/><use xlink:href="#n" transform="matrix(1,0,0,1,1025,250.5) translate(0 17.1)"/><path d="M540 123c0-1.66 1.34-3 3-3h194c1.66 0 3 1.34 3 3v98c0 1.66-1.34 3-3 3H543c-1.66 0-3-1.34-3-3z" fill="#95d6cb"/><path d="M540 123c0-1.66 1.34-3 3-3h194c1.66 0 3 1.34 3 3v98c0 1.66-1.34 3-3 3H543c-1.66 0-3-1.34-3-3zM540 160h200M600 160v64" stroke="#00987e" stroke-width="4" fill="none"/><use xlink:href="#o" transform="matrix(1,0,0,1,550,120) translate(66.57499999999999 23.6)"/><use xlink:href="#j" transform="matrix(1,0,0,1,545,162.5) translate(13 17.1)"/><use xlink:href="#n" transform="matrix(1,0,0,1,605,162.5) translate(0 17.1)"/><use xlink:href="#p" transform="matrix(1,0,0,1,605,194.5) translate(0 17.1)"/><path d="M580 363c0-1.66 1.34-3 3-3h194c1.66 0 3 1.34 3 3v450c0 1.66-1.34 3-3 3H583c-1.66 0-3-1.34-3-3z" fill="#95d6cb"/><path d="M580 363c0-1.66 1.34-3 3-3h194c1.66 0 3 1.34 3 3v450c0 1.66-1.34 3-3 3H583c-1.66 0-3-1.34-3-3zM580 400h200M640 400v416" stroke="#00987e" stroke-width="4" fill="none"/><use xlink:href="#q" transform="matrix(1,0,0,1,590,360) translate(48.099999999999994 23.6)"/><use xlink:href="#j" transform="matrix(1,0,0,1,585,402.5) translate(13 17.1)"/><use xlink:href="#r" transform="matrix(1,0,0,1,645,402.5) translate(0 17.1)"/><use xlink:href="#s" transform="matrix(1,0,0,1,645,434.5) translate(0 17.1)"/><use xlink:href="#t" transform="matrix(1,0,0,1,645,466.5) translate(0 17.1)"/><use xlink:href="#u" transform="matrix(1,0,0,1,645,498.5) translate(0 17.1)"/><use xlink:href="#v" transform="matrix(1,0,0,1,645,530.5) translate(0 17.1)"/><use xlink:href="#w" transform="matrix(1,0,0,1,645,562.5) translate(0 17.1)"/><use xlink:href="#x" transform="matrix(1,0,0,1,645,594.5) translate(0 17.1)"/><use xlink:href="#y" transform="matrix(1,0,0,1,645,626.5) translate(0 17.1)"/><use xlink:href="#z" transform="matrix(1,0,0,1,645,658.5) translate(0 17.1)"/><use xlink:href="#A" transform="matrix(1,0,0,1,645,690.5) translate(0 17.1)"/><use xlink:href="#B" transform="matrix(1,0,0,1,645,722.5) translate(0 17.1)"/><use xlink:href="#C" transform="matrix(1,0,0,1,645,754.5) translate(0 17.1)"/><use xlink:href="#D" transform="matrix(1,0,0,1,585,786.5) translate(13.524999999999999 17.1)"/><use xlink:href="#E" transform="matrix(1,0,0,1,645,786.5) translate(0 17.1)"/><path d="M160 179c0-1.66 1.34-3 3-3h194c1.66 0 3 1.34 3 3v514c0 1.66-1.34 3-3 3H163c-1.66 0-3-1.34-3-3z" fill="#95d6cb"/><path d="M160 179c0-1.66 1.34-3 3-3h194c1.66 0 3 1.34 3 3v514c0 1.66-1.34 3-3 3H163c-1.66 0-3-1.34-3-3zM160 216h200M220 216v480" stroke="#00987e" stroke-width="4" fill="none"/><use xlink:href="#F" transform="matrix(1,0,0,1,170,176) translate(47.55 23.6)"/><use xlink:href="#j" transform="matrix(1,0,0,1,165,218.5) translate(13 17.1)"/><use xlink:href="#G" transform="matrix(1,0,0,1,225,218.5) translate(0 17.1)"/><use xlink:href="#s" transform="matrix(1,0,0,1,225,250.5) translate(0 17.1)"/><use xlink:href="#t" transform="matrix(1,0,0,1,225,282.5) translate(0 17.1)"/><use xlink:href="#H" transform="matrix(1,0,0,1,225,314.5) translate(0 17.1)"/><use xlink:href="#I" transform="matrix(1,0,0,1,165,346.5) translate(13.524999999999999 17.1)"/><use xlink:href="#J" transform="matrix(1,0,0,1,225,346.5) translate(0 17.1)"/><use xlink:href="#K" transform="matrix(1,0,0,1,225,378.5) translate(0 17.1)"/><use xlink:href="#L" transform="matrix(1,0,0,1,225,410.5) translate(0 17.1)"/><use xlink:href="#v" transform="matrix(1,0,0,1,225,442.5) translate(0 17.1)"/><use xlink:href="#w" transform="matrix(1,0,0,1,225,474.5) translate(0 17.1)"/><use xlink:href="#x" transform="matrix(1,0,0,1,225,506.5) translate(0 17.1)"/><use xlink:href="#y" transform="matrix(1,0,0,1,225,538.5) translate(0 17.1)"/><use xlink:href="#z" transform="matrix(1,0,0,1,225,570.5) translate(0 17.1)"/><use xlink:href="#A" transform="matrix(1,0,0,1,225,602.5) translate(0 17.1)"/><use xlink:href="#B" transform="matrix(1,0,0,1,225,634.5) translate(0 17.1)"/><use xlink:href="#C" transform="matrix(1,0,0,1,225,666.5) translate(0 17.1)"/><path d="M1580 451.9c0-1.66 1.34-3 3-3h194c1.66 0 3 1.34 3 3v98c0 1.65-1.34 3-3 3h-194c-1.66 0-3-1.35-3-3z" fill="#95d6cb"/><path d="M1580 451.9c0-1.66 1.34-3 3-3h194c1.66 0 3 1.34 3 3v98c0 1.65-1.34 3-3 3h-194c-1.66 0-3-1.35-3-3zM1580 488.9h200M1640 488.9v64" stroke="#00987e" stroke-width="4" fill="none"/><use xlink:href="#M" transform="matrix(1,0,0,1,1590,448.8962264150943) translate(64.025 23.6)"/><use xlink:href="#j" transform="matrix(1,0,0,1,1585,491.3962264150943) translate(13 17.1)"/><use xlink:href="#N" transform="matrix(1,0,0,1,1645,491.3962264150943) translate(0 17.1)"/><use xlink:href="#p" transform="matrix(1,0,0,1,1645,523.3962264150944) translate(0 17.1)"/><path d="M369.28 874c0-1.66 1.34-3 3-3h214c1.65 0 3 1.34 3 3v322c0 1.66-1.35 3-3 3h-214c-1.66 0-3-1.34-3-3z" fill="#95d6cb"/><path d="M369.28 874c0-1.66 1.34-3 3-3h214c1.65 0 3 1.34 3 3v322c0 1.66-1.35 3-3 3h-214c-1.66 0-3-1.34-3-3zM369.28 911h220M429.28 911v288" stroke="#00987e" stroke-width="4" fill="none"/><use xlink:href="#O" transform="matrix(1,0,0,1,379.27582884186995,871) translate(69.05 23.6)"/><use xlink:href="#j" transform="matrix(1,0,0,1,374.27582884186995,913.5) translate(13 17.1)"/><use xlink:href="#P" transform="matrix(1,0,0,1,434.27582884186995,913.5) translate(0 17.1)"/><use xlink:href="#m" transform="matrix(1,0,0,1,374.27582884186995,945.5) translate(13.524999999999999 17.1)"/><use xlink:href="#r" transform="matrix(1,0,0,1,434.27582884186995,945.5) translate(0 17.1)"/><use xlink:href="#Q" transform="matrix(1,0,0,1,434.27582884186995,977.5) translate(0 17.1)"/><use xlink:href="#R" transform="matrix(1,0,0,1,434.27582884186995,1009.5) translate(0 17.1)"/><use xlink:href="#S" transform="matrix(1,0,0,1,434.27582884186995,1041.5) translate(0 17.1)"/><use xlink:href="#T" transform="matrix(1,0,0,1,434.27582884186995,1073.5) translate(0 17.1)"/><use xlink:href="#U" transform="matrix(1,0,0,1,434.27582884186995,1105.5) translate(0 17.1)"/><use xlink:href="#V" transform="matrix(1,0,0,1,434.27582884186995,1137.5) translate(0 17.1)"/><use xlink:href="#W" transform="matrix(1,0,0,1,434.27582884186995,1169.5) translate(0 17.1)"/><path d="M737.28 1013c0-1.66 1.34-3 3-3h194c1.65 0 3 1.34 3 3v194c0 1.66-1.35 3-3 3h-194c-1.66 0-3-1.34-3-3z" fill="#95d6cb"/><path d="M737.28 1013c0-1.66 1.34-3 3-3h194c1.65 0 3 1.34 3 3v194c0 1.66-1.35 3-3 3h-194c-1.66 0-3-1.34-3-3zM737.28 1050h200M797.28 1050v160" stroke="#00987e" stroke-width="4" fill="none"/><use xlink:href="#X" transform="matrix(1,0,0,1,747.27582884187,1010) translate(40.599999999999994 23.6)"/><use xlink:href="#j" transform="matrix(1,0,0,1,742.27582884187,1052.5) translate(13 17.1)"/><use xlink:href="#Y" transform="matrix(1,0,0,1,802.27582884187,1052.5) translate(0 17.1)"/><use xlink:href="#m" transform="matrix(1,0,0,1,742.27582884187,1084.5) translate(13.524999999999999 17.1)"/><use xlink:href="#P" transform="matrix(1,0,0,1,802.27582884187,1084.5) translate(0 17.1)"/><use xlink:href="#m" transform="matrix(1,0,0,1,742.27582884187,1116.5) translate(13.524999999999999 17.1)"/><use xlink:href="#Z" transform="matrix(1,0,0,1,802.27582884187,1116.5) translate(0 17.1)"/><use xlink:href="#aa" transform="matrix(1,0,0,1,802.27582884187,1148.5) translate(0 17.1)"/><use xlink:href="#ab" transform="matrix(1,0,0,1,802.27582884187,1180.5) translate(0 17.1)"/><path d="M1460 243c0-1.66 1.34-3 3-3h194c1.66 0 3 1.34 3 3v98c0 1.66-1.34 3-3 3h-194c-1.66 0-3-1.34-3-3z" fill="#95d6cb"/><path d="M1460 243c0-1.66 1.34-3 3-3h194c1.66 0 3 1.34 3 3v98c0 1.66-1.34 3-3 3h-194c-1.66 0-3-1.34-3-3zM1460 280h200M1520 280v64" stroke="#00987e" stroke-width="4" fill="none"/><use xlink:href="#ac" transform="matrix(1,0,0,1,1470,240) translate(44.275 23.6)"/><use xlink:href="#j" transform="matrix(1,0,0,1,1465,282.5) translate(13 17.1)"/><use xlink:href="#ad" transform="matrix(1,0,0,1,1525,282.5) translate(0 17.1)"/><use xlink:href="#p" transform="matrix(1,0,0,1,1525,314.5) translate(0 17.1)"/><path d="M1560 660.8c0-1.66 1.34-3 3-3h194c1.66 0 3 1.34 3 3v98c0 1.65-1.34 3-3 3h-194c-1.66 0-3-1.35-3-3z" fill="#95d6cb"/><path d="M1560 660.8c0-1.66 1.34-3 3-3h194c1.66 0 3 1.34 3 3v98c0 1.65-1.34 3-3 3h-194c-1.66 0-3-1.35-3-3zM1560 697.8h200M1620 697.8v64" stroke="#00987e" stroke-width="4" fill="none"/><use xlink:href="#ae" transform="matrix(1,0,0,1,1570,657.7924528301886) translate(58.525 23.6)"/><use xlink:href="#j" transform="matrix(1,0,0,1,1565,700.2924528301886) translate(13 17.1)"/><use xlink:href="#af" transform="matrix(1,0,0,1,1625,700.2924528301886) translate(0 17.1)"/><use xlink:href="#p" transform="matrix(1,0,0,1,1625,732.2924528301886) translate(0 17.1)"/><path d="M1160 803c0-1.66 1.34-3 3-3h194c1.66 0 3 1.34 3 3v98c0 1.66-1.34 3-3 3h-194c-1.66 0-3-1.34-3-3z" fill="#95d6cb"/><path d="M1160 803c0-1.66 1.34-3 3-3h194c1.66 0 3 1.34 3 3v98c0 1.66-1.34 3-3 3h-194c-1.66 0-3-1.34-3-3zM1160 840h200M1220 840v64" stroke="#00987e" stroke-width="4" fill="none"/><use xlink:href="#ag" transform="matrix(1,0,0,1,1170,800) translate(35.05 23.6)"/><use xlink:href="#m" transform="matrix(1,0,0,1,1165,842.5) translate(13.524999999999999 17.1)"/><use xlink:href="#af" transform="matrix(1,0,0,1,1225,842.5) translate(0 17.1)"/><use xlink:href="#m" transform="matrix(1,0,0,1,1165,874.5) translate(13.524999999999999 17.1)"/><use xlink:href="#Z" transform="matrix(1,0,0,1,1225,874.5) translate(0 17.1)"/><path d="M1040 387c0-1.66 1.34-3 3-3h194c1.66 0 3 1.34 3 3v322c0 1.66-1.34 3-3 3h-194c-1.66 0-3-1.34-3-3z" fill="#95d6cb"/><path d="M1040 387c0-1.66 1.34-3 3-3h194c1.66 0 3 1.34 3 3v322c0 1.66-1.34 3-3 3h-194c-1.66 0-3-1.34-3-3zM1040 424h200M1100 424v288" stroke="#00987e" stroke-width="4" fill="none"/><use xlink:href="#ah" transform="matrix(1,0,0,1,1050,384) translate(67.875 23.6)"/><use xlink:href="#j" transform="matrix(1,0,0,1,1045,426.5) translate(13 17.1)"/><use xlink:href="#Z" transform="matrix(1,0,0,1,1105,426.5) translate(0 17.1)"/><use xlink:href="#p" transform="matrix(1,0,0,1,1105,458.5) translate(0 17.1)"/><use xlink:href="#m" transform="matrix(1,0,0,1,1045,490.5) translate(13.524999999999999 17.1)"/><use xlink:href="#k" transform="matrix(1,0,0,1,1105,490.5) translate(0 17.1)"/><use xlink:href="#I" transform="matrix(1,0,0,1,1045,522.5) translate(13.524999999999999 17.1)"/><use xlink:href="#ai" transform="matrix(1,0,0,1,1105,522.5) translate(0 17.1)"/><use xlink:href="#I" transform="matrix(1,0,0,1,1045,554.5) translate(13.524999999999999 17.1)"/><use xlink:href="#aj" transform="matrix(1,0,0,1,1105,554.5) translate(0 17.1)"/><use xlink:href="#ak" transform="matrix(1,0,0,1,1105,586.5) translate(0 17.1)"/><use xlink:href="#al" transform="matrix(1,0,0,1,1105,618.5) translate(0 17.1)"/><use xlink:href="#am" transform="matrix(1,0,0,1,1105,650.5) translate(0 17.1)"/><use xlink:href="#aa" transform="matrix(1,0,0,1,1105,682.5) translate(0 17.1)"/><path d="M742 176.08h105c1.66 0 3 1.34 3 3v82.96c0 1.66 1.34 3 3 3h105" stroke="#303030" stroke-width="2" fill="none"/><path fill="#fff"/><path d="M763 186.08h-2v-20h2zM958 255.93l-18.2 9.1 18.2 9.12-.9 1.78-21.78-10.9 21.8-10.88z" fill="#303030"/><path d="M1162 199.76h117c1.66 0 3 1.34 3 3v297.36c0 1.66-1.34 3-3 3h-37" stroke="#303030" stroke-width="2" fill="none"/><path fill="#fff"/><path d="M1183 209.76h-2v-20h2zM1264.68 503.12l-21.8 10.9-.88-1.8 18.2-9.1-18.2-9.1.9-1.8z" fill="#303030"/><path d="M1242 568.4h175c1.66 0 3-1.34 3-3v-57.42c0-1.66 1.34-3 3-3h155" stroke="#303030" stroke-width="2" fill="none"/><path d="M1264.68 568.4l-21.8 10.9-.88-1.8 18.2-9.1-18.2-9.1.9-1.8z" fill="#303030"/><path fill="#fff"/><path d="M1559 514.98h-2v-20h2z" fill="#303030"/><path d="M1242 535.76h105c1.66 0 3-1.34 3-3V299.08c0-1.66 1.34-3 3-3h105" stroke="#303030" stroke-width="2" fill="none"/><path d="M1264.68 535.76l-21.8 10.9-.88-1.8 18.2-9.1-18.2-9.1.9-1.8z" fill="#303030"/><path fill="#fff"/><path d="M1439 306.08h-2v-20h2z" fill="#303030"/><path d="M1038 437.84h-37c-1.66 0-3 1.34-3 3v444.88c0 1.66 1.34 3 3 3h157" stroke="#303030" stroke-width="2" fill="none"/><path fill="#fff"/><path d="M1019 447.84h-2v-20h2zM1158 879.6l-18.2 9.12 18.2 9.1-.9 1.8-21.78-10.9 21.8-10.9z" fill="#303030"/><path d="M1362 856.08h95c1.66 0 3-1.34 3-3v-136.2c0-1.66 1.34-3 3-3h95" stroke="#303030" stroke-width="2" fill="none"/><path d="M1384.68 856.08l-21.8 10.9-.88-1.8 18.2-9.1-18.2-9.1.9-1.8z" fill="#303030"/><path fill="#fff"/><path d="M1539 723.87h-2v-20h2z" fill="#303030"/><path d="M735.28 1097.76h-69c-1.66 0-3-1.34-3-3V928.04c0-1.66-1.35-3-3-3h-69" stroke="#303030" stroke-width="2" fill="none"/><path d="M735.28 1088.65l-18.22 9.1 18.22 9.12-.9 1.78-21.8-10.9 21.8-10.88z" fill="#303030"/><path fill="#fff"/><path d="M612.28 935.04h-2v-20h2z" fill="#303030"/><path d="M160 232h-39c-1.66 0-3 1.34-3 3v120.48c0 1.66 1.34 3 3 3h37" stroke="#303030" stroke-width="2" fill="none"/><path d="M160 222.9l-18.2 9.1 18.2 9.1-.9 1.8-21.78-10.9 21.8-10.9z" fill="#303030"/><path fill="#fff"/><path d="M139 368.48h-2v-20h2z" fill="#303030"/><path d="M578 416h-95c-1.66 0-3 1.34-3 3v358c0 1.66-1.34 3-3 3H323c-1.66 0-3 1.34-3 3v171.62c0 1.66 1.34 3 3 3h44.28" stroke="#303030" stroke-width="2" fill="none"/><path fill="#fff"/><path d="M559 426h-2v-20h2zM367.28 948.5l-18.22 9.12 18.22 9.1-.9 1.8-21.8-10.9 21.8-10.9z" fill="#303030"/><path d="M1038 437.84H915c-1.66 0-3 1.34-3 3V937c0 1.66 1.34 3 3 3h136c1.66 0 3 1.34 3 3v184.4c0 1.66-1.34 3-3 3H939.28" stroke="#303030" stroke-width="2" fill="none"/><path fill="#fff"/><path d="M1019 447.84h-2v-20h2zM961.96 1130.4l-21.8 10.9-.88-1.8 18.2-9.1-18.2-9.1.9-1.8z" fill="#303030"/><path d="M360 232h57c1.66 0 3 1.34 3 3v562c0 1.66 1.34 3 3 3h157" stroke="#303030" stroke-width="2" fill="none"/><path fill="#fff"/><path d="M381 242h-2v-20h2zM580 790.9l-18.2 9.1 18.2 9.1-.9 1.8-21.78-10.9 21.8-10.9z" fill="#303030"/><defs><path fill="#303030" d="M650-1214c-281 0-336 244-336 533 0 295 60 546 347 546 188 0 263-142 322-282l159 65C1058-155 935 20 659 20c-401 0-546-295-546-701 0-407 135-689 536-689 264 0 391 146 466 335l-168 65c-47-129-127-244-297-244" id="an"/><path fill="#303030" d="M648-963c-190 6-283 138-283 336V0H185v-1484h181c-2 197 6 404-9 587h3c62-120 159-205 339-205 242 0 351 135 350 381V0H868v-695c1-168-57-273-220-268" id="ao"/><path fill="#303030" d="M745-142h380V0H143v-142h422v-798H246v-142h499v940zM545-1292v-192h200v192H545" id="ap"/><path fill="#303030" d="M706-1102c241 0 344 136 343 381V0H868v-695c1-168-57-273-220-268-190 6-283 138-283 336V0H185c-3-360 6-732-6-1082h170c4 54 7 126 8 185h3c63-121 164-204 346-205" id="aq"/><path fill="#303030" d="M615-1102c343 0 484 203 482 560-1 347-147 562-488 562-336 0-475-219-479-562-4-349 156-560 485-560zm-8 989c240 0 301-180 301-429 0-245-55-427-290-427-236 0-299 181-299 427 0 243 61 429 288 429" id="ar"/><path fill="#303030" d="M914 0L548-499l-132 98V0H236v-1484h180v927l475-525h211L663-617 1125 0H914" id="as"/><g id="a"><use transform="matrix(0.0087890625,0,0,0.0087890625,0,0)" xlink:href="#an"/><use transform="matrix(0.0087890625,0,0,0.0087890625,10.8017578125,0)" xlink:href="#ao"/><use transform="matrix(0.0087890625,0,0,0.0087890625,21.603515625,0)" xlink:href="#ap"/><use transform="matrix(0.0087890625,0,0,0.0087890625,32.4052734375,0)" xlink:href="#aq"/><use transform="matrix(0.0087890625,0,0,0.0087890625,43.20703125,0)" xlink:href="#ar"/><use transform="matrix(0.0087890625,0,0,0.0087890625,54.0087890625,0)" xlink:href="#ar"/><use transform="matrix(0.0087890625,0,0,0.0087890625,64.810546875,0)" xlink:href="#as"/></g><path fill="#303030" d="M162 0v-1349h919v156H353v422h668v154H353v461h769V0H162" id="at"/><path fill="#303030" d="M1121-976c0 225-142 341-344 379L1177 0H957L591-575H353V0H162v-1349h482c281 3 477 100 477 373zM633-726c181-1 296-73 296-247 0-149-101-223-304-223H353v470h280" id="au"/><path fill="#303030" d="M473-1349c438-1 655 221 652 661C1122-268 945-8 532 0H162v-1349h311zm42 1193c308-4 416-205 418-532 2-330-131-509-459-505H353v1037h162" id="av"/><g id="b"><use transform="matrix(0.0087890625,0,0,0.0087890625,0,0)" xlink:href="#at"/><use transform="matrix(0.0087890625,0,0,0.0087890625,10.8017578125,0)" xlink:href="#au"/><use transform="matrix(0.0087890625,0,0,0.0087890625,21.603515625,0)" xlink:href="#av"/></g><path fill="#303030" d="M1003 0L516-638 353-469V0H162v-1349h191v673l572-673h225L646-777 1227 0h-224" id="aw"/><path fill="#303030" d="M617-1102c355 0 481 238 477 599H322c5 222 84 388 301 388 144 0 244-59 284-166l158 45C1002-72 854 20 623 20c-342 0-490-220-490-568 0-346 151-554 484-554zm291 461c-18-192-90-328-289-328-194 0-287 128-295 328h584" id="ax"/><path fill="#303030" d="M147 0v-137l681-806H187v-139h844v137L349-139h719V0H147" id="ay"/><g id="c"><use transform="matrix(0.0087890625,0,0,0.0087890625,0,0)" xlink:href="#aw"/><use transform="matrix(0.0087890625,0,0,0.0087890625,10.8017578125,0)" xlink:href="#ax"/><use transform="matrix(0.0087890625,0,0,0.0087890625,21.603515625,0)" xlink:href="#aq"/><use transform="matrix(0.0087890625,0,0,0.0087890625,32.4052734375,0)" xlink:href="#ay"/><use transform="matrix(0.0087890625,0,0,0.0087890625,43.20703125,0)" xlink:href="#ap"/><use transform="matrix(0.0087890625,0,0,0.0087890625,54.0087890625,0)" xlink:href="#ax"/></g><path fill="#303030" d="M802-711c201 25 350 118 350 331C1152-95 921 0 634 0H162v-1349c401 9 908-74 908 327 0 184-111 275-268 311zm-224-69c174-2 300-51 300-218 0-163-124-198-302-198H353v416h225zM353-153c281-2 612 44 606-244-5-271-329-233-606-234v478" id="az"/><path fill="#303030" d="M682 16c-209 0-323-80-324-285v-671H190v-142h170l58-282h120v282h432v142H538v652c2 114 60 155 182 155 106 0 209-16 297-34v137C921-4 806 16 682 16" id="aA"/><path fill="#303030" d="M904-1102c199 0 220 177 220 381V0H956v-686c-3-114 0-215-60-264-70-33-125-4-158 71-26 56-39 140-39 252V0H531v-686c-3-114-1-215-61-264-78-41-136 24-157 84-24 69-39 159-39 259V0H105c-3-360 6-732-6-1082h149c6 50 3 123 8 175 36-100 83-195 216-195 135 0 166 79 196 196 42-105 93-196 236-196" id="aB"/><path fill="#303030" d="M873-819c-18-114-119-146-250-146-163 0-245 50-245 151 0 151 170 148 294 185 182 54 388 94 388 320 0 240-189 325-439 329-245 4-410-69-454-268l159-31c24 133 136 168 295 165 144-2 270-31 270-171 0-164-195-160-331-202-167-52-350-87-350-299 0-218 173-315 413-313 220 2 373 77 412 260" id="aC"/><g id="d"><use transform="matrix(0.0087890625,0,0,0.0087890625,0,0)" xlink:href="#az"/><use transform="matrix(0.0087890625,0,0,0.0087890625,10.8017578125,0)" xlink:href="#ar"/><use transform="matrix(0.0087890625,0,0,0.0087890625,21.603515625,0)" xlink:href="#aA"/><use transform="matrix(0.0087890625,0,0,0.0087890625,32.4052734375,0)" xlink:href="#aA"/><use transform="matrix(0.0087890625,0,0,0.0087890625,43.20703125,0)" xlink:href="#ar"/><use transform="matrix(0.0087890625,0,0,0.0087890625,54.0087890625,0)" xlink:href="#aB"/><use transform="matrix(0.0087890625,0,0,0.0087890625,64.810546875,0)" xlink:href="#aC"/></g><path fill="#303030" d="M531 425v-1909h166V425H531" id="aD"/><use transform="matrix(0.0087890625,0,0,0.0087890625,0,0)" xlink:href="#aD" id="e"/><path fill="#303030" d="M285-1169c8 382 2 780 4 1169H129v-1349h237c86 239 188 461 253 720 69-258 169-481 255-720h225V0H937c2-390-5-788 6-1169-75 255-170 488-259 729H547c-90-240-185-475-262-729" id="aE"/><path fill="#303030" d="M1000-272c3 95 12 159 101 161 21 0 41-3 59-7V-6c-44 10-86 16-139 16-141 2-191-84-197-217h-6C748-76 648 20 446 20c-207 0-318-120-318-322 0-266 194-348 454-354l236-4c12-191-40-305-222-305-140 0-220 47-232 172l-188-17c33-204 181-292 423-292 255 0 401 118 401 364v466zm-683-27c0 109 63 184 175 182 166-3 259-96 306-217 24-65 20-120 20-200-232 7-501-28-501 235" id="aF"/><path fill="#303030" d="M839-1102c70 0 148 7 206 17v167c-112-18-268-36-363 15-129 69-208 203-208 395V0H294c-10-367 32-789-52-1082h171c21 75 41 161 48 250h5c67-152 152-270 373-270" id="aG"/><path fill="#303030" d="M631 20c-350 0-501-215-501-562 0-355 162-560 502-560 250 0 399 118 446 323l-192 14c-23-124-109-196-262-196-242 0-305 171-305 415 1 245 61 427 304 427 151 0 248-77 267-215l190 12C1039-107 883 20 631 20" id="aH"/><g id="f"><use transform="matrix(0.0087890625,0,0,0.0087890625,0,0)" xlink:href="#aE"/><use transform="matrix(0.0087890625,0,0,0.0087890625,10.8017578125,0)" xlink:href="#aF"/><use transform="matrix(0.0087890625,0,0,0.0087890625,21.603515625,0)" xlink:href="#aG"/><use transform="matrix(0.0087890625,0,0,0.0087890625,32.4052734375,0)" xlink:href="#aH"/><use transform="matrix(0.0087890625,0,0,0.0087890625,43.20703125,0)" xlink:href="#ao"/></g><path fill="#303030" d="M611-1370c266 0 451 106 451 368 0 147-77 243-154 327-132 144-316 255-451 395-42 44-75 87-96 134h723V0H144v-117c124-264 387-411 582-603 73-72 151-147 151-271 0-161-104-231-266-231-163 0-249 90-268 238l-184-17c35-233 185-369 452-369" id="aI"/><path fill="#303030" d="M809-709c168 33 285 134 285 331 0 277-191 398-480 398-287 0-481-120-481-396 0-192 118-296 281-331v-4c-145-39-248-139-248-313 0-238 192-346 444-346 211 0 357 75 422 217 19 41 27 86 27 131 0 172-101 274-250 309v4zm-197-70c168 0 260-73 260-233 0-158-100-224-262-224-160 0-260 68-260 224 0 155 97 232 262 233zm4 664c194 1 291-91 291-280 0-172-115-249-297-249-178 0-291 85-291 253 0 186 106 275 297 276" id="aJ"/><path fill="#303030" d="M259 363l169-662h265L382 363H259" id="aK"/><g id="g"><use transform="matrix(0.0087890625,0,0,0.0087890625,0,0)" xlink:href="#aI"/><use transform="matrix(0.0087890625,0,0,0.0087890625,10.8017578125,0)" xlink:href="#aJ"/><use transform="matrix(0.0087890625,0,0,0.0087890625,21.603515625,0)" xlink:href="#aK"/></g><path fill="#303030" d="M1065-1013c47 164 49 500-1 665C999-130 875 20 611 20c-377 0-484-300-487-695-2-245 41-425 141-551 77-98 191-144 352-144 261 0 386 140 448 357zM741-155c199-92 203-504 159-785-26-168-96-284-283-284-281 0-308 256-311 549-2 181 18 324 80 428 46 77 115 118 227 120 47 0 90-10 128-28" id="aL"/><path fill="#303030" d="M148-1120c216-7 379-89 463-229h166v1204h353V0H157v-145h439v-1021c-79 124-254 184-448 194v-148" id="aM"/><g id="h"><use transform="matrix(0.0087890625,0,0,0.0087890625,0,0)" xlink:href="#aI"/><use transform="matrix(0.0087890625,0,0,0.0087890625,10.8017578125,0)" xlink:href="#aL"/><use transform="matrix(0.0087890625,0,0,0.0087890625,21.603515625,0)" xlink:href="#aM"/><use transform="matrix(0.0087890625,0,0,0.0087890625,32.4052734375,0)" xlink:href="#aJ"/></g><path fill="#303030" d="M199 0l-22-63H83L61 0H9l90-248h61L250 0h-51zm-33-102l-36-108c-10 38-24 72-36 108h72" id="aN"/><path fill="#303030" d="M25 0v-261h50V0H25" id="aO"/><path fill="#303030" d="M135-194c52 0 70 43 70 98 0 56-19 99-73 100-30 1-46-15-58-35L72 0H24l1-261h50v104c11-23 29-37 60-37zM114-30c31 0 40-27 40-66 0-37-7-63-39-63s-41 28-41 65c0 36 8 64 40 64" id="aP"/><path fill="#303030" d="M85 4C-2 5 27-109 22-190h50c7 57-23 150 33 157 60-5 35-97 40-157h50l1 190h-47c-2-12 1-28-3-38-12 25-28 42-61 42" id="aQ"/><path fill="#303030" d="M220-157c-53 9-28 100-34 157h-49v-107c1-27-5-49-29-50C55-147 81-57 75 0H25l-1-190h47c2 12-1 28 3 38 10-53 101-56 108 0 13-22 24-43 59-42 82 1 51 116 57 194h-49v-107c-1-25-5-48-29-50" id="aR"/><g id="i"><use transform="matrix(0.05,0,0,0.05,0,0)" xlink:href="#aN"/><use transform="matrix(0.05,0,0,0.05,12.950000000000001,0)" xlink:href="#aO"/><use transform="matrix(0.05,0,0,0.05,17.950000000000003,0)" xlink:href="#aP"/><use transform="matrix(0.05,0,0,0.05,28.900000000000006,0)" xlink:href="#aQ"/><use transform="matrix(0.05,0,0,0.05,39.85000000000001,0)" xlink:href="#aR"/></g><path fill="#303030" d="M30-248c87 1 191-15 191 75 0 78-77 80-158 76V0H30v-248zm33 125c57 0 124 11 124-50 0-59-68-47-124-48v98" id="aS"/><path fill="#303030" d="M194 0L95-120 63-95V0H30v-248h33v124l119-124h40L117-140 236 0h-42" id="aT"/><g id="j"><use transform="matrix(0.05,0,0,0.05,0,0)" xlink:href="#aS"/><use transform="matrix(0.05,0,0,0.05,12,0)" xlink:href="#aT"/></g><path fill="#303030" d="M205 0l-28-72H64L36 0H1l101-248h38L239 0h-34zm-38-99l-47-123c-12 45-31 82-46 123h93" id="aU"/><path fill="#303030" d="M24 0v-261h32V0H24" id="aV"/><path fill="#303030" d="M115-194c53 0 69 39 70 98 0 66-23 100-70 100C84 3 66-7 56-30L54 0H23l1-261h32v101c10-23 28-34 59-34zm-8 174c40 0 45-34 45-75 0-40-5-75-45-74-42 0-51 32-51 76 0 43 10 73 51 73" id="aW"/><path fill="#303030" d="M84 4C-5 8 30-112 23-190h32v120c0 31 7 50 39 49 72-2 45-101 50-169h31l1 190h-30c-1-10 1-25-2-33-11 22-28 36-60 37" id="aX"/><path fill="#303030" d="M210-169c-67 3-38 105-44 169h-31v-121c0-29-5-50-35-48C34-165 62-65 56 0H25l-1-190h30c1 10-1 24 2 32 10-44 99-50 107 0 11-21 27-35 58-36 85-2 47 119 55 194h-31v-121c0-29-5-49-35-48" id="aY"/><path fill="#303030" d="M33 0v-248h34V0H33" id="aZ"/><path fill="#303030" d="M85-194c31 0 48 13 60 33l-1-100h32l1 261h-30c-2-10 0-23-3-31C134-8 116 4 85 4 32 4 16-35 15-94c0-66 23-100 70-100zm9 24c-40 0-46 34-46 75 0 40 6 74 45 74 42 0 51-32 51-76 0-42-9-74-50-73" id="ba"/><g id="k"><use transform="matrix(0.05,0,0,0.05,0,0)" xlink:href="#aU"/><use transform="matrix(0.05,0,0,0.05,12,0)" xlink:href="#aV"/><use transform="matrix(0.05,0,0,0.05,15.949999999999998,0)" xlink:href="#aW"/><use transform="matrix(0.05,0,0,0.05,25.950000000000003,0)" xlink:href="#aX"/><use transform="matrix(0.05,0,0,0.05,35.95,0)" xlink:href="#aY"/><use transform="matrix(0.05,0,0,0.05,50.900000000000006,0)" xlink:href="#aZ"/><use transform="matrix(0.05,0,0,0.05,55.900000000000006,0)" xlink:href="#ba"/></g><path fill="#303030" d="M127-220V0H93v-220H8v-28h204v28h-85" id="bb"/><path fill="#303030" d="M24-231v-30h32v30H24zM24 0v-190h32V0H24" id="bc"/><path fill="#303030" d="M59-47c-2 24 18 29 38 22v24C64 9 27 4 27-40v-127H5v-23h24l9-43h21v43h35v23H59v120" id="bd"/><path fill="#303030" d="M100-194c63 0 86 42 84 106H49c0 40 14 67 53 68 26 1 43-12 49-29l28 8c-11 28-37 45-77 45C44 4 14-33 15-96c1-61 26-98 85-98zm52 81c6-60-76-77-97-28-3 7-6 17-6 28h103" id="be"/><g id="l"><use transform="matrix(0.05,0,0,0.05,0,0)" xlink:href="#bb"/><use transform="matrix(0.05,0,0,0.05,10.3,0)" xlink:href="#bc"/><use transform="matrix(0.05,0,0,0.05,14.25,0)" xlink:href="#bd"/><use transform="matrix(0.05,0,0,0.05,19.25,0)" xlink:href="#aV"/><use transform="matrix(0.05,0,0,0.05,23.2,0)" xlink:href="#be"/></g><path fill="#303030" d="M63-220v92h138v28H63V0H30v-248h175v28H63" id="bf"/><g id="m"><use transform="matrix(0.05,0,0,0.05,0,0)" xlink:href="#bf"/><use transform="matrix(0.05,0,0,0.05,10.950000000000001,0)" xlink:href="#aT"/></g><path fill="#303030" d="M114-163C36-179 61-72 57 0H25l-1-190h30c1 12-1 29 2 39 6-27 23-49 58-41v29" id="bg"/><path fill="#303030" d="M135-143c-3-34-86-38-87 0 15 53 115 12 119 90S17 21 10-45l28-5c4 36 97 45 98 0-10-56-113-15-118-90-4-57 82-63 122-42 12 7 21 19 24 35" id="bh"/><g id="n"><use transform="matrix(0.05,0,0,0.05,0,0)" xlink:href="#aU"/><use transform="matrix(0.05,0,0,0.05,12,0)" xlink:href="#bg"/><use transform="matrix(0.05,0,0,0.05,17.95,0)" xlink:href="#bd"/><use transform="matrix(0.05,0,0,0.05,22.95,0)" xlink:href="#bc"/><use transform="matrix(0.05,0,0,0.05,26.899999999999995,0)" xlink:href="#bh"/><use transform="matrix(0.05,0,0,0.05,35.9,0)" xlink:href="#bd"/><use transform="matrix(0.05,0,0,0.05,40.9,0)" xlink:href="#aZ"/><use transform="matrix(0.05,0,0,0.05,45.9,0)" xlink:href="#ba"/></g><path fill="#303030" d="M135-150c-39-12-60 13-60 57V0H25l-1-190h47c2 13-1 29 3 40 6-28 27-53 61-41v41" id="bi"/><path fill="#303030" d="M115-3C79 11 28 4 28-45v-112H4v-33h27l15-45h31v45h36v33H77v99c-1 23 16 31 38 25v30" id="bj"/><path fill="#303030" d="M25-224v-37h50v37H25zM25 0v-190h50V0H25" id="bk"/><path fill="#303030" d="M137-138c1-29-70-34-71-4 15 46 118 7 119 86 1 83-164 76-172 9l43-7c4 19 20 25 44 25 33 8 57-30 24-41C81-84 22-81 20-136c-2-80 154-74 161-7" id="bl"/><g id="o"><use transform="matrix(0.05,0,0,0.05,0,0)" xlink:href="#aN"/><use transform="matrix(0.05,0,0,0.05,12.950000000000001,0)" xlink:href="#bi"/><use transform="matrix(0.05,0,0,0.05,19.950000000000003,0)" xlink:href="#bj"/><use transform="matrix(0.05,0,0,0.05,25.900000000000002,0)" xlink:href="#bk"/><use transform="matrix(0.05,0,0,0.05,30.900000000000002,0)" xlink:href="#bl"/><use transform="matrix(0.05,0,0,0.05,40.900000000000006,0)" xlink:href="#bj"/></g><path fill="#303030" d="M190 0L58-211 59 0H30v-248h39L202-35l-2-213h31V0h-41" id="bm"/><path fill="#303030" d="M141-36C126-15 110 5 73 4 37 3 15-17 15-53c-1-64 63-63 125-63 3-35-9-54-41-54-24 1-41 7-42 31l-33-3c5-37 33-52 76-52 45 0 72 20 72 64v82c-1 20 7 32 28 27v20c-31 9-61-2-59-35zM48-53c0 20 12 33 32 33 41-3 63-29 60-74-43 2-92-5-92 41" id="bn"/><g id="p"><use transform="matrix(0.05,0,0,0.05,0,0)" xlink:href="#bm"/><use transform="matrix(0.05,0,0,0.05,12.950000000000001,0)" xlink:href="#bn"/><use transform="matrix(0.05,0,0,0.05,22.950000000000003,0)" xlink:href="#aY"/><use transform="matrix(0.05,0,0,0.05,37.900000000000006,0)" xlink:href="#be"/></g><path fill="#303030" d="M67-125c0 53 21 87 73 88 37 1 54-22 65-47l45 17C233-25 199 4 140 4 58 4 20-42 15-125 8-235 124-281 211-232c18 10 29 29 36 50l-46 12c-8-25-30-41-62-41-52 0-71 34-72 86" id="bo"/><path fill="#303030" d="M110-194c64 0 96 36 96 99 0 64-35 99-97 99-61 0-95-36-95-99 0-62 34-99 96-99zm-1 164c35 0 45-28 45-65 0-40-10-65-43-65-34 0-45 26-45 65 0 36 10 65 43 65" id="bp"/><path fill="#303030" d="M185-48c-13 30-37 53-82 52C43 2 14-33 14-96s30-98 90-98c62 0 83 45 84 108H66c0 31 8 55 39 56 18 0 30-7 34-22zm-45-69c5-46-57-63-70-21-2 6-4 13-4 21h74" id="bq"/><g id="q"><use transform="matrix(0.05,0,0,0.05,0,0)" xlink:href="#bo"/><use transform="matrix(0.05,0,0,0.05,12.950000000000001,0)" xlink:href="#aQ"/><use transform="matrix(0.05,0,0,0.05,23.900000000000002,0)" xlink:href="#bl"/><use transform="matrix(0.05,0,0,0.05,33.900000000000006,0)" xlink:href="#bj"/><use transform="matrix(0.05,0,0,0.05,39.85000000000001,0)" xlink:href="#bp"/><use transform="matrix(0.05,0,0,0.05,50.80000000000001,0)" xlink:href="#aR"/><use transform="matrix(0.05,0,0,0.05,66.80000000000001,0)" xlink:href="#bq"/><use transform="matrix(0.05,0,0,0.05,76.80000000000001,0)" xlink:href="#bi"/></g><path fill="#303030" d="M212-179c-10-28-35-45-73-45-59 0-87 40-87 99 0 60 29 101 89 101 43 0 62-24 78-52l27 14C228-24 195 4 139 4 59 4 22-46 18-125c-6-104 99-153 187-111 19 9 31 26 39 46" id="br"/><path fill="#303030" d="M100-194c62-1 85 37 85 99 1 63-27 99-86 99S16-35 15-95c0-66 28-99 85-99zM99-20c44 1 53-31 53-75 0-43-8-75-51-75s-53 32-53 75 10 74 51 75" id="bs"/><g id="r"><use transform="matrix(0.05,0,0,0.05,0,0)" xlink:href="#br"/><use transform="matrix(0.05,0,0,0.05,12.950000000000001,0)" xlink:href="#aX"/><use transform="matrix(0.05,0,0,0.05,22.950000000000003,0)" xlink:href="#bh"/><use transform="matrix(0.05,0,0,0.05,31.950000000000003,0)" xlink:href="#bd"/><use transform="matrix(0.05,0,0,0.05,36.95,0)" xlink:href="#bs"/><use transform="matrix(0.05,0,0,0.05,46.95,0)" xlink:href="#aY"/><use transform="matrix(0.05,0,0,0.05,61.900000000000006,0)" xlink:href="#be"/><use transform="matrix(0.05,0,0,0.05,71.9,0)" xlink:href="#bg"/><use transform="matrix(0.05,0,0,0.05,77.85000000000001,0)" xlink:href="#aZ"/><use transform="matrix(0.05,0,0,0.05,82.85000000000001,0)" xlink:href="#ba"/></g><g id="s"><use transform="matrix(0.05,0,0,0.05,0,0)" xlink:href="#bf"/><use transform="matrix(0.05,0,0,0.05,10.950000000000001,0)" xlink:href="#bc"/><use transform="matrix(0.05,0,0,0.05,14.9,0)" xlink:href="#bg"/><use transform="matrix(0.05,0,0,0.05,20.85,0)" xlink:href="#bh"/><use transform="matrix(0.05,0,0,0.05,29.85,0)" xlink:href="#bd"/><use transform="matrix(0.05,0,0,0.05,34.85,0)" xlink:href="#bm"/><use transform="matrix(0.05,0,0,0.05,47.800000000000004,0)" xlink:href="#bn"/><use transform="matrix(0.05,0,0,0.05,57.800000000000004,0)" xlink:href="#aY"/><use transform="matrix(0.05,0,0,0.05,72.75,0)" xlink:href="#be"/></g><path fill="#303030" d="M30 0v-248h33v221h125V0H30" id="bt"/><g id="t"><use transform="matrix(0.05,0,0,0.05,0,0)" xlink:href="#bt"/><use transform="matrix(0.05,0,0,0.05,10,0)" xlink:href="#bn"/><use transform="matrix(0.05,0,0,0.05,20,0)" xlink:href="#bh"/><use transform="matrix(0.05,0,0,0.05,29,0)" xlink:href="#bd"/><use transform="matrix(0.05,0,0,0.05,34,0)" xlink:href="#bm"/><use transform="matrix(0.05,0,0,0.05,46.95,0)" xlink:href="#bn"/><use transform="matrix(0.05,0,0,0.05,56.95,0)" xlink:href="#aY"/><use transform="matrix(0.05,0,0,0.05,71.9,0)" xlink:href="#be"/></g><path d="M212-179c-10-28-35-45-73-45-59 0-87 40-87 99 0 60 29 101 89 101 43 0 62-24 78-52l27 14C228-24 195 4 139 4 59 4 22-46 18-125c-6-104 99-153 187-111 19 9 31 26 39 46" id="bu"/><path d="M100-194c62-1 85 37 85 99 1 63-27 99-86 99S16-35 15-95c0-66 28-99 85-99zM99-20c44 1 53-31 53-75 0-43-8-75-51-75s-53 32-53 75 10 74 51 75" id="bv"/><path d="M210-169c-67 3-38 105-44 169h-31v-121c0-29-5-50-35-48C34-165 62-65 56 0H25l-1-190h30c1 10-1 24 2 32 10-44 99-50 107 0 11-21 27-35 58-36 85-2 47 119 55 194h-31v-121c0-29-5-49-35-48" id="bw"/><path d="M115-194c55 1 70 41 70 98S169 2 115 4C84 4 66-9 55-30l1 105H24l-1-265h31l2 30c10-21 28-34 59-34zm-8 174c40 0 45-34 45-75s-6-73-45-74c-42 0-51 32-51 76 0 43 10 73 51 73" id="bx"/><path d="M141-36C126-15 110 5 73 4 37 3 15-17 15-53c-1-64 63-63 125-63 3-35-9-54-41-54-24 1-41 7-42 31l-33-3c5-37 33-52 76-52 45 0 72 20 72 64v82c-1 20 7 32 28 27v20c-31 9-61-2-59-35zM48-53c0 20 12 33 32 33 41-3 63-29 60-74-43 2-92-5-92 41" id="by"/><path d="M117-194c89-4 53 116 60 194h-32v-121c0-31-8-49-39-48C34-167 62-67 57 0H25l-1-190h30c1 10-1 24 2 32 11-22 29-35 61-36" id="bz"/><path d="M179-190L93 31C79 59 56 82 12 73V49c39 6 53-20 64-50L1-190h34L92-34l54-156h33" id="bA"/><g id="u"><use transform="matrix(0.05,0,0,0.05,0,0)" xlink:href="#bu"/><use transform="matrix(0.05,0,0,0.05,12.950000000000001,0)" xlink:href="#bv"/><use transform="matrix(0.05,0,0,0.05,22.950000000000003,0)" xlink:href="#bw"/><use transform="matrix(0.05,0,0,0.05,37.900000000000006,0)" xlink:href="#bx"/><use transform="matrix(0.05,0,0,0.05,47.900000000000006,0)" xlink:href="#by"/><use transform="matrix(0.05,0,0,0.05,57.900000000000006,0)" xlink:href="#bz"/><use transform="matrix(0.05,0,0,0.05,67.9,0)" xlink:href="#bA"/></g><path d="M205 0l-28-72H64L36 0H1l101-248h38L239 0h-34zm-38-99l-47-123c-12 45-31 82-46 123h93" id="bB"/><path d="M85-194c31 0 48 13 60 33l-1-100h32l1 261h-30c-2-10 0-23-3-31C134-8 116 4 85 4 32 4 16-35 15-94c0-66 23-100 70-100zm9 24c-40 0-46 34-46 75 0 40 6 74 45 74 42 0 51-32 51-76 0-42-9-74-50-73" id="bC"/><path d="M114-163C36-179 61-72 57 0H25l-1-190h30c1 12-1 29 2 39 6-27 23-49 58-41v29" id="bD"/><path d="M100-194c63 0 86 42 84 106H49c0 40 14 67 53 68 26 1 43-12 49-29l28 8c-11 28-37 45-77 45C44 4 14-33 15-96c1-61 26-98 85-98zm52 81c6-60-76-77-97-28-3 7-6 17-6 28h103" id="bE"/><path d="M135-143c-3-34-86-38-87 0 15 53 115 12 119 90S17 21 10-45l28-5c4 36 97 45 98 0-10-56-113-15-118-90-4-57 82-63 122-42 12 7 21 19 24 35" id="bF"/><g id="v"><use transform="matrix(0.05,0,0,0.05,0,0)" xlink:href="#bB"/><use transform="matrix(0.05,0,0,0.05,12,0)" xlink:href="#bC"/><use transform="matrix(0.05,0,0,0.05,22,0)" xlink:href="#bC"/><use transform="matrix(0.05,0,0,0.05,32,0)" xlink:href="#bD"/><use transform="matrix(0.05,0,0,0.05,37.95,0)" xlink:href="#bE"/><use transform="matrix(0.05,0,0,0.05,47.95,0)" xlink:href="#bF"/><use transform="matrix(0.05,0,0,0.05,56.95,0)" xlink:href="#bF"/></g><path d="M24-231v-30h32v30H24zM24 0v-190h32V0H24" id="bG"/><path d="M59-47c-2 24 18 29 38 22v24C64 9 27 4 27-40v-127H5v-23h24l9-43h21v43h35v23H59v120" id="bH"/><g id="w"><use transform="matrix(0.05,0,0,0.05,0,0)" xlink:href="#bu"/><use transform="matrix(0.05,0,0,0.05,12.950000000000001,0)" xlink:href="#bG"/><use transform="matrix(0.05,0,0,0.05,16.900000000000002,0)" xlink:href="#bH"/><use transform="matrix(0.05,0,0,0.05,21.900000000000002,0)" xlink:href="#bA"/></g><path d="M185-189c-5-48-123-54-124 2 14 75 158 14 163 119 3 78-121 87-175 55-17-10-28-26-33-46l33-7c5 56 141 63 141-1 0-78-155-14-162-118-5-82 145-84 179-34 5 7 8 16 11 25" id="bI"/><g id="x"><use transform="matrix(0.05,0,0,0.05,0,0)" xlink:href="#bI"/><use transform="matrix(0.05,0,0,0.05,12,0)" xlink:href="#bH"/><use transform="matrix(0.05,0,0,0.05,17,0)" xlink:href="#by"/><use transform="matrix(0.05,0,0,0.05,27,0)" xlink:href="#bH"/><use transform="matrix(0.05,0,0,0.05,32,0)" xlink:href="#bE"/></g><path d="M84 4C-5 8 30-112 23-190h32v120c0 31 7 50 39 49 72-2 45-101 50-169h31l1 190h-30c-1-10 1-25-2-33-11 22-28 36-60 37" id="bJ"/><g id="y"><use transform="matrix(0.05,0,0,0.05,0,0)" xlink:href="#bu"/><use transform="matrix(0.05,0,0,0.05,12.950000000000001,0)" xlink:href="#bv"/><use transform="matrix(0.05,0,0,0.05,22.950000000000003,0)" xlink:href="#bJ"/><use transform="matrix(0.05,0,0,0.05,32.95,0)" xlink:href="#bz"/><use transform="matrix(0.05,0,0,0.05,42.95,0)" xlink:href="#bH"/><use transform="matrix(0.05,0,0,0.05,47.95,0)" xlink:href="#bD"/><use transform="matrix(0.05,0,0,0.05,53.900000000000006,0)" xlink:href="#bA"/></g><path d="M30-248c87 1 191-15 191 75 0 78-77 80-158 76V0H30v-248zm33 125c57 0 124 11 124-50 0-59-68-47-124-48v98" id="bK"/><path d="M24 0v-261h32V0H24" id="bL"/><g id="z"><use transform="matrix(0.05,0,0,0.05,0,0)" xlink:href="#bK"/><use transform="matrix(0.05,0,0,0.05,12,0)" xlink:href="#bv"/><use transform="matrix(0.05,0,0,0.05,22,0)" xlink:href="#bF"/><use transform="matrix(0.05,0,0,0.05,31,0)" xlink:href="#bH"/><use transform="matrix(0.05,0,0,0.05,36,0)" xlink:href="#by"/><use transform="matrix(0.05,0,0,0.05,46,0)" xlink:href="#bL"/><use transform="matrix(0.05,0,0,0.05,49.95,0)" xlink:href="#bu"/><use transform="matrix(0.05,0,0,0.05,62.900000000000006,0)" xlink:href="#bv"/><use transform="matrix(0.05,0,0,0.05,72.9,0)" xlink:href="#bC"/><use transform="matrix(0.05,0,0,0.05,82.9,0)" xlink:href="#bE"/></g><path d="M106-169C34-169 62-67 57 0H25v-261h32l-1 103c12-21 28-36 61-36 89 0 53 116 60 194h-32v-121c2-32-8-49-39-48" id="bM"/><g id="A"><use transform="matrix(0.05,0,0,0.05,0,0)" xlink:href="#bK"/><use transform="matrix(0.05,0,0,0.05,12,0)" xlink:href="#bM"/><use transform="matrix(0.05,0,0,0.05,22,0)" xlink:href="#bv"/><use transform="matrix(0.05,0,0,0.05,32,0)" xlink:href="#bz"/><use transform="matrix(0.05,0,0,0.05,42,0)" xlink:href="#bE"/></g><path d="M63-220v92h138v28H63V0H30v-248h175v28H63" id="bN"/><path d="M141 0L90-78 38 0H4l68-98-65-92h35l48 74 47-74h35l-64 92 68 98h-35" id="bO"/><g id="B"><use transform="matrix(0.05,0,0,0.05,0,0)" xlink:href="#bN"/><use transform="matrix(0.05,0,0,0.05,10.950000000000001,0)" xlink:href="#by"/><use transform="matrix(0.05,0,0,0.05,20.950000000000003,0)" xlink:href="#bO"/></g><path d="M30 0v-248h187v28H63v79h144v27H63v87h162V0H30" id="bP"/><g id="C"><use transform="matrix(0.05,0,0,0.05,0,0)" xlink:href="#bP"/><use transform="matrix(0.05,0,0,0.05,12,0)" xlink:href="#bw"/><use transform="matrix(0.05,0,0,0.05,26.950000000000003,0)" xlink:href="#by"/><use transform="matrix(0.05,0,0,0.05,36.95,0)" xlink:href="#bG"/><use transform="matrix(0.05,0,0,0.05,40.900000000000006,0)" xlink:href="#bL"/></g><path d="M194 0L95-120 63-95V0H30v-248h33v124l119-124h40L117-140 236 0h-42" id="bQ"/><g id="D"><use transform="matrix(0.05,0,0,0.05,0,0)" xlink:href="#bN"/><use transform="matrix(0.05,0,0,0.05,10.950000000000001,0)" xlink:href="#bQ"/></g><path d="M233-177c-1 41-23 64-60 70L243 0h-38l-65-103H63V0H30v-248c88 3 205-21 203 71zM63-129c60-2 137 13 137-47 0-61-80-42-137-45v92" id="bR"/><path d="M33 0v-248h34V0H33" id="bS"/><g id="E"><use transform="matrix(0.05,0,0,0.05,0,0)" xlink:href="#bI"/><use transform="matrix(0.05,0,0,0.05,12,0)" xlink:href="#bJ"/><use transform="matrix(0.05,0,0,0.05,22,0)" xlink:href="#bx"/><use transform="matrix(0.05,0,0,0.05,32,0)" xlink:href="#bx"/><use transform="matrix(0.05,0,0,0.05,42,0)" xlink:href="#bv"/><use transform="matrix(0.05,0,0,0.05,52,0)" xlink:href="#bD"/><use transform="matrix(0.05,0,0,0.05,57.95,0)" xlink:href="#bH"/><use transform="matrix(0.05,0,0,0.05,62.95,0)" xlink:href="#bR"/><use transform="matrix(0.05,0,0,0.05,75.9,0)" xlink:href="#bE"/><use transform="matrix(0.05,0,0,0.05,85.9,0)" xlink:href="#bx"/><use transform="matrix(0.05,0,0,0.05,95.9,0)" xlink:href="#bS"/><use transform="matrix(0.05,0,0,0.05,100.9,0)" xlink:href="#bC"/></g><path fill="#303030" d="M24 0v-248h195v40H76v63h132v40H76v65h150V0H24" id="bT"/><path fill="#303030" d="M135-194c53 0 70 44 70 98 0 56-19 98-73 100-31 1-45-17-59-34 3 33 2 69 2 105H25l-1-265h48c2 10 0 23 3 31 11-24 29-35 60-35zM114-30c33 0 39-31 40-66 0-38-9-64-40-64-56 0-55 130 0 130" id="bU"/><path fill="#303030" d="M123 10C108 53 80 86 19 72V37c35 8 53-11 59-39L3-190h52l48 148c12-52 28-100 44-148h51" id="bV"/><g id="F"><use transform="matrix(0.05,0,0,0.05,0,0)" xlink:href="#bT"/><use transform="matrix(0.05,0,0,0.05,12,0)" xlink:href="#aR"/><use transform="matrix(0.05,0,0,0.05,28,0)" xlink:href="#bU"/><use transform="matrix(0.05,0,0,0.05,38.95,0)" xlink:href="#aO"/><use transform="matrix(0.05,0,0,0.05,43.95,0)" xlink:href="#bp"/><use transform="matrix(0.05,0,0,0.05,54.900000000000006,0)" xlink:href="#bV"/><use transform="matrix(0.05,0,0,0.05,64.9,0)" xlink:href="#bq"/><use transform="matrix(0.05,0,0,0.05,74.9,0)" xlink:href="#bq"/></g><path fill="#303030" d="M30 0v-248h187v28H63v79h144v27H63v87h162V0H30" id="bW"/><path fill="#303030" d="M115-194c55 1 70 41 70 98S169 2 115 4C84 4 66-9 55-30l1 105H24l-1-265h31l2 30c10-21 28-34 59-34zm-8 174c40 0 45-34 45-75s-6-73-45-74c-42 0-51 32-51 76 0 43 10 73 51 73" id="bX"/><path fill="#303030" d="M179-190L93 31C79 59 56 82 12 73V49c39 6 53-20 64-50L1-190h34L92-34l54-156h33" id="bY"/><g id="G"><use transform="matrix(0.05,0,0,0.05,0,0)" xlink:href="#bW"/><use transform="matrix(0.05,0,0,0.05,12,0)" xlink:href="#aY"/><use transform="matrix(0.05,0,0,0.05,26.950000000000003,0)" xlink:href="#bX"/><use transform="matrix(0.05,0,0,0.05,36.95,0)" xlink:href="#aV"/><use transform="matrix(0.05,0,0,0.05,40.900000000000006,0)" xlink:href="#bs"/><use transform="matrix(0.05,0,0,0.05,50.900000000000006,0)" xlink:href="#bY"/><use transform="matrix(0.05,0,0,0.05,59.900000000000006,0)" xlink:href="#be"/><use transform="matrix(0.05,0,0,0.05,69.9,0)" xlink:href="#be"/><use transform="matrix(0.05,0,0,0.05,79.9,0)" xlink:href="#aZ"/><use transform="matrix(0.05,0,0,0.05,84.9,0)" xlink:href="#ba"/></g><path d="M127-220V0H93v-220H8v-28h204v28h-85" id="bZ"/><g id="H"><use transform="matrix(0.05,0,0,0.05,0,0)" xlink:href="#bZ"/><use transform="matrix(0.05,0,0,0.05,10.3,0)" xlink:href="#bG"/><use transform="matrix(0.05,0,0,0.05,14.25,0)" xlink:href="#bH"/><use transform="matrix(0.05,0,0,0.05,19.25,0)" xlink:href="#bL"/><use transform="matrix(0.05,0,0,0.05,23.2,0)" xlink:href="#bE"/></g><g id="I"><use transform="matrix(0.05,0,0,0.05,0,0)" xlink:href="#bN"/><use transform="matrix(0.05,0,0,0.05,10.950000000000001,0)" xlink:href="#bQ"/></g><g id="J"><use transform="matrix(0.05,0,0,0.05,0,0)" xlink:href="#bR"/><use transform="matrix(0.05,0,0,0.05,12.950000000000001,0)" xlink:href="#bE"/><use transform="matrix(0.05,0,0,0.05,22.950000000000003,0)" xlink:href="#bx"/><use transform="matrix(0.05,0,0,0.05,32.95,0)" xlink:href="#bv"/><use transform="matrix(0.05,0,0,0.05,42.95,0)" xlink:href="#bD"/><use transform="matrix(0.05,0,0,0.05,48.900000000000006,0)" xlink:href="#bH"/><use transform="matrix(0.05,0,0,0.05,53.900000000000006,0)" xlink:href="#bF"/><use transform="matrix(0.05,0,0,0.05,62.900000000000006,0)" xlink:href="#bZ"/><use transform="matrix(0.05,0,0,0.05,71.85000000000001,0)" xlink:href="#bv"/></g><path d="M160-131c35 5 61 23 61 61C221 17 115-2 30 0v-248c76 3 177-17 177 60 0 33-19 50-47 57zm-97-11c50-1 110 9 110-42 0-47-63-36-110-37v79zm0 115c55-2 124 14 124-45 0-56-70-42-124-44v89" id="ca"/><path d="M30-248c118-7 216 8 213 122C240-48 200 0 122 0H30v-248zM63-27c89 8 146-16 146-99s-60-101-146-95v194" id="cb"/><g id="K"><use transform="matrix(0.05,0,0,0.05,0,0)" xlink:href="#ca"/><use transform="matrix(0.05,0,0,0.05,12,0)" xlink:href="#bG"/><use transform="matrix(0.05,0,0,0.05,15.949999999999998,0)" xlink:href="#bD"/><use transform="matrix(0.05,0,0,0.05,21.9,0)" xlink:href="#bH"/><use transform="matrix(0.05,0,0,0.05,26.899999999999995,0)" xlink:href="#bM"/><use transform="matrix(0.05,0,0,0.05,36.9,0)" xlink:href="#cb"/><use transform="matrix(0.05,0,0,0.05,49.85,0)" xlink:href="#by"/><use transform="matrix(0.05,0,0,0.05,59.85,0)" xlink:href="#bH"/><use transform="matrix(0.05,0,0,0.05,64.85,0)" xlink:href="#bE"/></g><path d="M197 0v-115H63V0H30v-248h33v105h134v-105h34V0h-34" id="cc"/><g id="L"><use transform="matrix(0.05,0,0,0.05,0,0)" xlink:href="#cc"/><use transform="matrix(0.05,0,0,0.05,12.950000000000001,0)" xlink:href="#bG"/><use transform="matrix(0.05,0,0,0.05,16.900000000000002,0)" xlink:href="#bD"/><use transform="matrix(0.05,0,0,0.05,22.85,0)" xlink:href="#bE"/><use transform="matrix(0.05,0,0,0.05,32.85,0)" xlink:href="#cb"/><use transform="matrix(0.05,0,0,0.05,45.800000000000004,0)" xlink:href="#by"/><use transform="matrix(0.05,0,0,0.05,55.800000000000004,0)" xlink:href="#bH"/><use transform="matrix(0.05,0,0,0.05,60.800000000000004,0)" xlink:href="#bE"/></g><path fill="#303030" d="M67-125c0 54 23 88 75 88 28 0 53-7 68-21v-34h-60v-39h108v91C232-14 192 4 140 4 58 4 20-42 15-125 8-236 126-280 215-234c19 10 29 26 37 47l-47 15c-11-23-29-39-63-39-53 1-75 33-75 86" id="cd"/><path fill="#303030" d="M135-194c87-1 58 113 63 194h-50c-7-57 23-157-34-157-59 0-34 97-39 157H25l-1-190h47c2 12-1 28 3 38 12-26 28-41 61-42" id="ce"/><g id="M"><use transform="matrix(0.05,0,0,0.05,0,0)" xlink:href="#cd"/><use transform="matrix(0.05,0,0,0.05,14,0)" xlink:href="#bq"/><use transform="matrix(0.05,0,0,0.05,24,0)" xlink:href="#ce"/><use transform="matrix(0.05,0,0,0.05,34.95,0)" xlink:href="#bi"/><use transform="matrix(0.05,0,0,0.05,41.95,0)" xlink:href="#bq"/></g><path fill="#303030" d="M143 4C61 4 22-44 18-125c-5-107 100-154 193-111 17 8 29 25 37 43l-32 9c-13-25-37-40-76-40-61 0-88 39-88 99 0 61 29 100 91 101 35 0 62-11 79-27v-45h-74v-28h105v86C228-13 192 4 143 4" id="cf"/><path fill="#303030" d="M117-194c89-4 53 116 60 194h-32v-121c0-31-8-49-39-48C34-167 62-67 57 0H25l-1-190h30c1 10-1 24 2 32 11-22 29-35 61-36" id="cg"/><g id="N"><use transform="matrix(0.05,0,0,0.05,0,0)" xlink:href="#cf"/><use transform="matrix(0.05,0,0,0.05,14,0)" xlink:href="#be"/><use transform="matrix(0.05,0,0,0.05,24,0)" xlink:href="#cg"/><use transform="matrix(0.05,0,0,0.05,34,0)" xlink:href="#bg"/><use transform="matrix(0.05,0,0,0.05,39.95,0)" xlink:href="#be"/><use transform="matrix(0.05,0,0,0.05,49.95,0)" xlink:href="#aZ"/><use transform="matrix(0.05,0,0,0.05,54.95,0)" xlink:href="#ba"/></g><path fill="#303030" d="M24 0v-248h52V0H24" id="ch"/><path fill="#303030" d="M128 0H69L1-190h53L99-40l48-150h52" id="ci"/><path fill="#303030" d="M190-63c-7 42-38 67-86 67-59 0-84-38-90-98-12-110 154-137 174-36l-49 2c-2-19-15-32-35-32-30 0-35 28-38 64-6 74 65 87 74 30" id="cj"/><g id="O"><use transform="matrix(0.05,0,0,0.05,0,0)" xlink:href="#ch"/><use transform="matrix(0.05,0,0,0.05,5,0)" xlink:href="#ce"/><use transform="matrix(0.05,0,0,0.05,15.950000000000001,0)" xlink:href="#ci"/><use transform="matrix(0.05,0,0,0.05,25.950000000000003,0)" xlink:href="#bp"/><use transform="matrix(0.05,0,0,0.05,36.900000000000006,0)" xlink:href="#bk"/><use transform="matrix(0.05,0,0,0.05,41.900000000000006,0)" xlink:href="#cj"/><use transform="matrix(0.05,0,0,0.05,51.900000000000006,0)" xlink:href="#bq"/></g><path fill="#303030" d="M108 0H70L1-190h34L89-25l56-165h34" id="ck"/><path fill="#303030" d="M96-169c-40 0-48 33-48 73s9 75 48 75c24 0 41-14 43-38l32 2c-6 37-31 61-74 61-59 0-76-41-82-99-10-93 101-131 147-64 4 7 5 14 7 22l-32 3c-4-21-16-35-41-35" id="cl"/><g id="P"><use transform="matrix(0.05,0,0,0.05,0,0)" xlink:href="#aZ"/><use transform="matrix(0.05,0,0,0.05,5,0)" xlink:href="#cg"/><use transform="matrix(0.05,0,0,0.05,15,0)" xlink:href="#ck"/><use transform="matrix(0.05,0,0,0.05,24,0)" xlink:href="#bs"/><use transform="matrix(0.05,0,0,0.05,34,0)" xlink:href="#bc"/><use transform="matrix(0.05,0,0,0.05,37.95,0)" xlink:href="#cl"/><use transform="matrix(0.05,0,0,0.05,46.95,0)" xlink:href="#be"/><use transform="matrix(0.05,0,0,0.05,56.95,0)" xlink:href="#aZ"/><use transform="matrix(0.05,0,0,0.05,61.95,0)" xlink:href="#ba"/></g><path fill="#303030" d="M30-248c118-7 216 8 213 122C240-48 200 0 122 0H30v-248zM63-27c89 8 146-16 146-99s-60-101-146-95v194" id="cm"/><g id="Q"><use transform="matrix(0.05,0,0,0.05,0,0)" xlink:href="#aZ"/><use transform="matrix(0.05,0,0,0.05,5,0)" xlink:href="#cg"/><use transform="matrix(0.05,0,0,0.05,15,0)" xlink:href="#ck"/><use transform="matrix(0.05,0,0,0.05,24,0)" xlink:href="#bs"/><use transform="matrix(0.05,0,0,0.05,34,0)" xlink:href="#bc"/><use transform="matrix(0.05,0,0,0.05,37.95,0)" xlink:href="#cl"/><use transform="matrix(0.05,0,0,0.05,46.95,0)" xlink:href="#be"/><use transform="matrix(0.05,0,0,0.05,56.95,0)" xlink:href="#cm"/><use transform="matrix(0.05,0,0,0.05,69.9,0)" xlink:href="#bn"/><use transform="matrix(0.05,0,0,0.05,79.9,0)" xlink:href="#bd"/><use transform="matrix(0.05,0,0,0.05,84.9,0)" xlink:href="#be"/></g><path d="M177-190C167-65 218 103 67 71c-23-6-38-20-44-43l32-5c15 47 100 32 89-28v-30C133-14 115 1 83 1 29 1 15-40 15-95c0-56 16-97 71-98 29-1 48 16 59 35 1-10 0-23 2-32h30zM94-22c36 0 50-32 50-73 0-42-14-75-50-75-39 0-46 34-46 75s6 73 46 73" id="cn"/><g id="R"><use transform="matrix(0.05,0,0,0.05,0,0)" xlink:href="#ca"/><use transform="matrix(0.05,0,0,0.05,12,0)" xlink:href="#bG"/><use transform="matrix(0.05,0,0,0.05,15.949999999999998,0)" xlink:href="#bL"/><use transform="matrix(0.05,0,0,0.05,19.9,0)" xlink:href="#bL"/><use transform="matrix(0.05,0,0,0.05,23.849999999999998,0)" xlink:href="#bG"/><use transform="matrix(0.05,0,0,0.05,27.799999999999997,0)" xlink:href="#bz"/><use transform="matrix(0.05,0,0,0.05,37.8,0)" xlink:href="#cn"/><use transform="matrix(0.05,0,0,0.05,47.8,0)" xlink:href="#bB"/><use transform="matrix(0.05,0,0,0.05,59.79999999999999,0)" xlink:href="#bC"/><use transform="matrix(0.05,0,0,0.05,69.8,0)" xlink:href="#bC"/><use transform="matrix(0.05,0,0,0.05,79.8,0)" xlink:href="#bD"/><use transform="matrix(0.05,0,0,0.05,85.75,0)" xlink:href="#bE"/><use transform="matrix(0.05,0,0,0.05,95.75,0)" xlink:href="#bF"/><use transform="matrix(0.05,0,0,0.05,104.75,0)" xlink:href="#bF"/></g><g id="S"><use transform="matrix(0.05,0,0,0.05,0,0)" xlink:href="#ca"/><use transform="matrix(0.05,0,0,0.05,12,0)" xlink:href="#bG"/><use transform="matrix(0.05,0,0,0.05,15.949999999999998,0)" xlink:href="#bL"/><use transform="matrix(0.05,0,0,0.05,19.9,0)" xlink:href="#bL"/><use transform="matrix(0.05,0,0,0.05,23.849999999999998,0)" xlink:href="#bG"/><use transform="matrix(0.05,0,0,0.05,27.799999999999997,0)" xlink:href="#bz"/><use transform="matrix(0.05,0,0,0.05,37.8,0)" xlink:href="#cn"/><use transform="matrix(0.05,0,0,0.05,47.8,0)" xlink:href="#bu"/><use transform="matrix(0.05,0,0,0.05,60.75,0)" xlink:href="#bG"/><use transform="matrix(0.05,0,0,0.05,64.7,0)" xlink:href="#bH"/><use transform="matrix(0.05,0,0,0.05,69.7,0)" xlink:href="#bA"/></g><g id="T"><use transform="matrix(0.05,0,0,0.05,0,0)" xlink:href="#ca"/><use transform="matrix(0.05,0,0,0.05,12,0)" xlink:href="#bG"/><use transform="matrix(0.05,0,0,0.05,15.949999999999998,0)" xlink:href="#bL"/><use transform="matrix(0.05,0,0,0.05,19.9,0)" xlink:href="#bL"/><use transform="matrix(0.05,0,0,0.05,23.849999999999998,0)" xlink:href="#bG"/><use transform="matrix(0.05,0,0,0.05,27.799999999999997,0)" xlink:href="#bz"/><use transform="matrix(0.05,0,0,0.05,37.8,0)" xlink:href="#cn"/><use transform="matrix(0.05,0,0,0.05,47.8,0)" xlink:href="#bI"/><use transform="matrix(0.05,0,0,0.05,59.79999999999999,0)" xlink:href="#bH"/><use transform="matrix(0.05,0,0,0.05,64.8,0)" xlink:href="#by"/><use transform="matrix(0.05,0,0,0.05,74.8,0)" xlink:href="#bH"/><use transform="matrix(0.05,0,0,0.05,79.8,0)" xlink:href="#bE"/></g><g id="U"><use transform="matrix(0.05,0,0,0.05,0,0)" xlink:href="#ca"/><use transform="matrix(0.05,0,0,0.05,12,0)" xlink:href="#bG"/><use transform="matrix(0.05,0,0,0.05,15.949999999999998,0)" xlink:href="#bL"/><use transform="matrix(0.05,0,0,0.05,19.9,0)" xlink:href="#bL"/><use transform="matrix(0.05,0,0,0.05,23.849999999999998,0)" xlink:href="#bG"/><use transform="matrix(0.05,0,0,0.05,27.799999999999997,0)" xlink:href="#bz"/><use transform="matrix(0.05,0,0,0.05,37.8,0)" xlink:href="#cn"/><use transform="matrix(0.05,0,0,0.05,47.8,0)" xlink:href="#bu"/><use transform="matrix(0.05,0,0,0.05,60.75,0)" xlink:href="#bv"/><use transform="matrix(0.05,0,0,0.05,70.75,0)" xlink:href="#bJ"/><use transform="matrix(0.05,0,0,0.05,80.75,0)" xlink:href="#bz"/><use transform="matrix(0.05,0,0,0.05,90.75,0)" xlink:href="#bH"/><use transform="matrix(0.05,0,0,0.05,95.75,0)" xlink:href="#bD"/><use transform="matrix(0.05,0,0,0.05,101.7,0)" xlink:href="#bA"/></g><g id="V"><use transform="matrix(0.05,0,0,0.05,0,0)" xlink:href="#ca"/><use transform="matrix(0.05,0,0,0.05,12,0)" xlink:href="#bG"/><use transform="matrix(0.05,0,0,0.05,15.949999999999998,0)" xlink:href="#bL"/><use transform="matrix(0.05,0,0,0.05,19.9,0)" xlink:href="#bL"/><use transform="matrix(0.05,0,0,0.05,23.849999999999998,0)" xlink:href="#bG"/><use transform="matrix(0.05,0,0,0.05,27.799999999999997,0)" xlink:href="#bz"/><use transform="matrix(0.05,0,0,0.05,37.8,0)" xlink:href="#cn"/><use transform="matrix(0.05,0,0,0.05,47.8,0)" xlink:href="#bK"/><use transform="matrix(0.05,0,0,0.05,59.79999999999999,0)" xlink:href="#bv"/><use transform="matrix(0.05,0,0,0.05,69.8,0)" xlink:href="#bF"/><use transform="matrix(0.05,0,0,0.05,78.8,0)" xlink:href="#bH"/><use transform="matrix(0.05,0,0,0.05,83.8,0)" xlink:href="#by"/><use transform="matrix(0.05,0,0,0.05,93.8,0)" xlink:href="#bL"/><use transform="matrix(0.05,0,0,0.05,97.75,0)" xlink:href="#bu"/><use transform="matrix(0.05,0,0,0.05,110.7,0)" xlink:href="#bv"/><use transform="matrix(0.05,0,0,0.05,120.7,0)" xlink:href="#bC"/><use transform="matrix(0.05,0,0,0.05,130.7,0)" xlink:href="#bE"/></g><g id="W"><use transform="matrix(0.05,0,0,0.05,0,0)" xlink:href="#bZ"/><use transform="matrix(0.05,0,0,0.05,8.950000000000001,0)" xlink:href="#bv"/><use transform="matrix(0.05,0,0,0.05,18.950000000000003,0)" xlink:href="#bH"/><use transform="matrix(0.05,0,0,0.05,23.950000000000003,0)" xlink:href="#by"/><use transform="matrix(0.05,0,0,0.05,33.95,0)" xlink:href="#bL"/></g><path fill="#303030" d="M24 0v-248h52v208h133V0H24" id="co"/><g id="X"><use transform="matrix(0.05,0,0,0.05,0,0)" xlink:href="#ch"/><use transform="matrix(0.05,0,0,0.05,5,0)" xlink:href="#ce"/><use transform="matrix(0.05,0,0,0.05,15.950000000000001,0)" xlink:href="#ci"/><use transform="matrix(0.05,0,0,0.05,25.950000000000003,0)" xlink:href="#bp"/><use transform="matrix(0.05,0,0,0.05,36.900000000000006,0)" xlink:href="#bk"/><use transform="matrix(0.05,0,0,0.05,41.900000000000006,0)" xlink:href="#cj"/><use transform="matrix(0.05,0,0,0.05,51.900000000000006,0)" xlink:href="#bq"/><use transform="matrix(0.05,0,0,0.05,61.900000000000006,0)" xlink:href="#co"/><use transform="matrix(0.05,0,0,0.05,72.85000000000001,0)" xlink:href="#bk"/><use transform="matrix(0.05,0,0,0.05,77.85000000000001,0)" xlink:href="#ce"/><use transform="matrix(0.05,0,0,0.05,88.80000000000001,0)" xlink:href="#bq"/></g><g id="Y"><use transform="matrix(0.05,0,0,0.05,0,0)" xlink:href="#aZ"/><use transform="matrix(0.05,0,0,0.05,5,0)" xlink:href="#cg"/><use transform="matrix(0.05,0,0,0.05,15,0)" xlink:href="#ck"/><use transform="matrix(0.05,0,0,0.05,24,0)" xlink:href="#bs"/><use transform="matrix(0.05,0,0,0.05,34,0)" xlink:href="#bc"/><use transform="matrix(0.05,0,0,0.05,37.95,0)" xlink:href="#cl"/><use transform="matrix(0.05,0,0,0.05,46.95,0)" xlink:href="#be"/><use transform="matrix(0.05,0,0,0.05,56.95,0)" xlink:href="#bt"/><use transform="matrix(0.05,0,0,0.05,66.95,0)" xlink:href="#bc"/><use transform="matrix(0.05,0,0,0.05,70.9,0)" xlink:href="#cg"/><use transform="matrix(0.05,0,0,0.05,80.9,0)" xlink:href="#be"/><use transform="matrix(0.05,0,0,0.05,90.9,0)" xlink:href="#aZ"/><use transform="matrix(0.05,0,0,0.05,95.9,0)" xlink:href="#ba"/></g><path fill="#303030" d="M143 0L79-87 56-68V0H24v-261h32v163l83-92h37l-77 82L181 0h-38" id="cp"/><g id="Z"><use transform="matrix(0.05,0,0,0.05,0,0)" xlink:href="#bb"/><use transform="matrix(0.05,0,0,0.05,10.3,0)" xlink:href="#bg"/><use transform="matrix(0.05,0,0,0.05,16.25,0)" xlink:href="#bn"/><use transform="matrix(0.05,0,0,0.05,26.25,0)" xlink:href="#cl"/><use transform="matrix(0.05,0,0,0.05,35.25,0)" xlink:href="#cp"/><use transform="matrix(0.05,0,0,0.05,44.25,0)" xlink:href="#aZ"/><use transform="matrix(0.05,0,0,0.05,49.25,0)" xlink:href="#ba"/></g><path d="M232-93c-1 65-40 97-104 97C67 4 28-28 28-90v-158h33c8 89-33 224 67 224 102 0 64-133 71-224h33v155" id="cq"/><path d="M96-169c-40 0-48 33-48 73s9 75 48 75c24 0 41-14 43-38l32 2c-6 37-31 61-74 61-59 0-76-41-82-99-10-93 101-131 147-64 4 7 5 14 7 22l-32 3c-4-21-16-35-41-35" id="cr"/><g id="aa"><use transform="matrix(0.05,0,0,0.05,0,0)" xlink:href="#cq"/><use transform="matrix(0.05,0,0,0.05,12.950000000000001,0)" xlink:href="#bz"/><use transform="matrix(0.05,0,0,0.05,22.950000000000003,0)" xlink:href="#bG"/><use transform="matrix(0.05,0,0,0.05,26.900000000000002,0)" xlink:href="#bH"/><use transform="matrix(0.05,0,0,0.05,31.900000000000002,0)" xlink:href="#bK"/><use transform="matrix(0.05,0,0,0.05,43.900000000000006,0)" xlink:href="#bD"/><use transform="matrix(0.05,0,0,0.05,49.85000000000001,0)" xlink:href="#bG"/><use transform="matrix(0.05,0,0,0.05,53.80000000000001,0)" xlink:href="#cr"/><use transform="matrix(0.05,0,0,0.05,62.80000000000001,0)" xlink:href="#bE"/></g><path d="M140-251c81 0 123 46 123 126C263-53 228-8 163 1c7 30 30 48 69 40v23c-55 16-95-15-103-61C56-3 17-48 17-125c0-80 42-126 123-126zm0 227c63 0 89-41 89-101s-29-99-89-99c-61 0-89 39-89 99S79-25 140-24" id="cs"/><g id="ab"><use transform="matrix(0.05,0,0,0.05,0,0)" xlink:href="#cs"/><use transform="matrix(0.05,0,0,0.05,14,0)" xlink:href="#bJ"/><use transform="matrix(0.05,0,0,0.05,24,0)" xlink:href="#by"/><use transform="matrix(0.05,0,0,0.05,34,0)" xlink:href="#bz"/><use transform="matrix(0.05,0,0,0.05,44,0)" xlink:href="#bH"/><use transform="matrix(0.05,0,0,0.05,49,0)" xlink:href="#bG"/><use transform="matrix(0.05,0,0,0.05,52.95,0)" xlink:href="#bH"/><use transform="matrix(0.05,0,0,0.05,57.95,0)" xlink:href="#bA"/></g><path fill="#303030" d="M230 0l2-204L168 0h-37L68-204 70 0H24v-248h70l56 185 57-185h69V0h-46" id="ct"/><path fill="#303030" d="M88-194c31-1 46 15 58 34l-1-101h50l1 261h-48c-2-10 0-23-3-31C134-8 116 4 84 4 32 4 16-41 15-95c0-56 19-97 73-99zm17 164c33 0 40-30 41-66 1-37-9-64-41-64s-38 30-39 65c0 43 13 65 39 65" id="cu"/><path fill="#303030" d="M133-34C117-15 103 5 69 4 32 3 11-16 11-54c-1-60 55-63 116-61 1-26-3-47-28-47-18 1-26 9-28 27l-52-2c7-38 36-58 82-57s74 22 75 68l1 82c-1 14 12 18 25 15v27c-30 8-71 5-69-32zm-48 3c29 0 43-24 42-57-32 0-66-3-65 30 0 17 8 27 23 27" id="cv"/><path fill="#303030" d="M136-208V0H84v-208H4v-40h212v40h-80" id="cw"/><g id="ac"><use transform="matrix(0.05,0,0,0.05,0,0)" xlink:href="#ct"/><use transform="matrix(0.05,0,0,0.05,14.950000000000001,0)" xlink:href="#bq"/><use transform="matrix(0.05,0,0,0.05,24.950000000000003,0)" xlink:href="#cu"/><use transform="matrix(0.05,0,0,0.05,35.900000000000006,0)" xlink:href="#bk"/><use transform="matrix(0.05,0,0,0.05,40.900000000000006,0)" xlink:href="#cv"/><use transform="matrix(0.05,0,0,0.05,50.900000000000006,0)" xlink:href="#cw"/><use transform="matrix(0.05,0,0,0.05,60.5,0)" xlink:href="#bV"/><use transform="matrix(0.05,0,0,0.05,70.5,0)" xlink:href="#bU"/><use transform="matrix(0.05,0,0,0.05,81.45,0)" xlink:href="#bq"/></g><path fill="#303030" d="M240 0l2-218c-23 76-54 145-80 218h-23L58-218 59 0H30v-248h44l77 211c21-75 51-140 76-211h43V0h-30" id="cx"/><g id="ad"><use transform="matrix(0.05,0,0,0.05,0,0)" xlink:href="#cx"/><use transform="matrix(0.05,0,0,0.05,14.950000000000001,0)" xlink:href="#be"/><use transform="matrix(0.05,0,0,0.05,24.950000000000003,0)" xlink:href="#ba"/><use transform="matrix(0.05,0,0,0.05,34.95,0)" xlink:href="#bc"/><use transform="matrix(0.05,0,0,0.05,38.900000000000006,0)" xlink:href="#bn"/><use transform="matrix(0.05,0,0,0.05,48.900000000000006,0)" xlink:href="#bb"/><use transform="matrix(0.05,0,0,0.05,58.85,0)" xlink:href="#bY"/><use transform="matrix(0.05,0,0,0.05,67.85000000000001,0)" xlink:href="#bX"/><use transform="matrix(0.05,0,0,0.05,77.85000000000001,0)" xlink:href="#be"/><use transform="matrix(0.05,0,0,0.05,87.85000000000001,0)" xlink:href="#aZ"/><use transform="matrix(0.05,0,0,0.05,92.85000000000001,0)" xlink:href="#ba"/></g><path fill="#303030" d="M24-248c93 1 206-16 204 79-1 75-69 88-152 82V0H24v-248zm52 121c47 0 100 7 100-41 0-47-54-39-100-39v80" id="cy"/><g id="ae"><use transform="matrix(0.05,0,0,0.05,0,0)" xlink:href="#cy"/><use transform="matrix(0.05,0,0,0.05,12,0)" xlink:href="#aO"/><use transform="matrix(0.05,0,0,0.05,17,0)" xlink:href="#cv"/><use transform="matrix(0.05,0,0,0.05,27,0)" xlink:href="#bV"/><use transform="matrix(0.05,0,0,0.05,37,0)" xlink:href="#aO"/><use transform="matrix(0.05,0,0,0.05,42,0)" xlink:href="#bk"/><use transform="matrix(0.05,0,0,0.05,47,0)" xlink:href="#bl"/><use transform="matrix(0.05,0,0,0.05,57,0)" xlink:href="#bj"/></g><g id="af"><use transform="matrix(0.05,0,0,0.05,0,0)" xlink:href="#aS"/><use transform="matrix(0.05,0,0,0.05,12,0)" xlink:href="#aV"/><use transform="matrix(0.05,0,0,0.05,15.949999999999998,0)" xlink:href="#bn"/><use transform="matrix(0.05,0,0,0.05,25.950000000000003,0)" xlink:href="#bY"/><use transform="matrix(0.05,0,0,0.05,34.95,0)" xlink:href="#aV"/><use transform="matrix(0.05,0,0,0.05,38.900000000000006,0)" xlink:href="#bc"/><use transform="matrix(0.05,0,0,0.05,42.85000000000001,0)" xlink:href="#bh"/><use transform="matrix(0.05,0,0,0.05,51.85,0)" xlink:href="#bd"/><use transform="matrix(0.05,0,0,0.05,56.85,0)" xlink:href="#aZ"/><use transform="matrix(0.05,0,0,0.05,61.85,0)" xlink:href="#ba"/></g><path fill="#303030" d="M147 0L96-86 75-71V0H25v-261h50v150l67-79h53l-66 74L201 0h-54" id="cz"/><g id="ag"><use transform="matrix(0.05,0,0,0.05,0,0)" xlink:href="#cy"/><use transform="matrix(0.05,0,0,0.05,12,0)" xlink:href="#aO"/><use transform="matrix(0.05,0,0,0.05,17,0)" xlink:href="#cv"/><use transform="matrix(0.05,0,0,0.05,27,0)" xlink:href="#bV"/><use transform="matrix(0.05,0,0,0.05,37,0)" xlink:href="#aO"/><use transform="matrix(0.05,0,0,0.05,42,0)" xlink:href="#bk"/><use transform="matrix(0.05,0,0,0.05,47,0)" xlink:href="#bl"/><use transform="matrix(0.05,0,0,0.05,57,0)" xlink:href="#bj"/><use transform="matrix(0.05,0,0,0.05,62.95,0)" xlink:href="#cw"/><use transform="matrix(0.05,0,0,0.05,72.9,0)" xlink:href="#bi"/><use transform="matrix(0.05,0,0,0.05,79.9,0)" xlink:href="#cv"/><use transform="matrix(0.05,0,0,0.05,89.9,0)" xlink:href="#cj"/><use transform="matrix(0.05,0,0,0.05,99.9,0)" xlink:href="#cz"/></g><g id="ah"><use transform="matrix(0.05,0,0,0.05,0,0)" xlink:href="#bb"/><use transform="matrix(0.05,0,0,0.05,10.3,0)" xlink:href="#bg"/><use transform="matrix(0.05,0,0,0.05,16.25,0)" xlink:href="#bn"/><use transform="matrix(0.05,0,0,0.05,26.25,0)" xlink:href="#cl"/><use transform="matrix(0.05,0,0,0.05,35.25,0)" xlink:href="#cp"/></g><path d="M240 0l2-218c-23 76-54 145-80 218h-23L58-218 59 0H30v-248h44l77 211c21-75 51-140 76-211h43V0h-30" id="cA"/><g id="ai"><use transform="matrix(0.05,0,0,0.05,0,0)" xlink:href="#cA"/><use transform="matrix(0.05,0,0,0.05,14.950000000000001,0)" xlink:href="#bE"/><use transform="matrix(0.05,0,0,0.05,24.950000000000003,0)" xlink:href="#bC"/><use transform="matrix(0.05,0,0,0.05,34.95,0)" xlink:href="#bG"/><use transform="matrix(0.05,0,0,0.05,38.900000000000006,0)" xlink:href="#by"/><use transform="matrix(0.05,0,0,0.05,48.900000000000006,0)" xlink:href="#bZ"/><use transform="matrix(0.05,0,0,0.05,58.85,0)" xlink:href="#bA"/><use transform="matrix(0.05,0,0,0.05,67.85000000000001,0)" xlink:href="#bx"/><use transform="matrix(0.05,0,0,0.05,77.85000000000001,0)" xlink:href="#bE"/><use transform="matrix(0.05,0,0,0.05,87.85000000000001,0)" xlink:href="#bS"/><use transform="matrix(0.05,0,0,0.05,92.85000000000001,0)" xlink:href="#bC"/></g><path d="M143 4C61 4 22-44 18-125c-5-107 100-154 193-111 17 8 29 25 37 43l-32 9c-13-25-37-40-76-40-61 0-88 39-88 99 0 61 29 100 91 101 35 0 62-11 79-27v-45h-74v-28h105v86C228-13 192 4 143 4" id="cB"/><g id="aj"><use transform="matrix(0.05,0,0,0.05,0,0)" xlink:href="#cB"/><use transform="matrix(0.05,0,0,0.05,14,0)" xlink:href="#bE"/><use transform="matrix(0.05,0,0,0.05,24,0)" xlink:href="#bz"/><use transform="matrix(0.05,0,0,0.05,34,0)" xlink:href="#bD"/><use transform="matrix(0.05,0,0,0.05,39.95,0)" xlink:href="#bE"/><use transform="matrix(0.05,0,0,0.05,49.95,0)" xlink:href="#bS"/><use transform="matrix(0.05,0,0,0.05,54.95,0)" xlink:href="#bC"/></g><g id="ak"><use transform="matrix(0.05,0,0,0.05,0,0)" xlink:href="#bu"/><use transform="matrix(0.05,0,0,0.05,12.950000000000001,0)" xlink:href="#bv"/><use transform="matrix(0.05,0,0,0.05,22.950000000000003,0)" xlink:href="#bw"/><use transform="matrix(0.05,0,0,0.05,37.900000000000006,0)" xlink:href="#bx"/><use transform="matrix(0.05,0,0,0.05,47.900000000000006,0)" xlink:href="#bv"/><use transform="matrix(0.05,0,0,0.05,57.900000000000006,0)" xlink:href="#bF"/><use transform="matrix(0.05,0,0,0.05,66.9,0)" xlink:href="#bE"/><use transform="matrix(0.05,0,0,0.05,76.9,0)" xlink:href="#bD"/></g><g id="al"><use transform="matrix(0.05,0,0,0.05,0,0)" xlink:href="#cA"/><use transform="matrix(0.05,0,0,0.05,14.950000000000001,0)" xlink:href="#bG"/><use transform="matrix(0.05,0,0,0.05,18.900000000000002,0)" xlink:href="#bL"/><use transform="matrix(0.05,0,0,0.05,22.85,0)" xlink:href="#bL"/><use transform="matrix(0.05,0,0,0.05,26.8,0)" xlink:href="#bG"/><use transform="matrix(0.05,0,0,0.05,30.75,0)" xlink:href="#bF"/><use transform="matrix(0.05,0,0,0.05,39.75,0)" xlink:href="#bE"/><use transform="matrix(0.05,0,0,0.05,49.75,0)" xlink:href="#cr"/><use transform="matrix(0.05,0,0,0.05,58.75,0)" xlink:href="#bv"/><use transform="matrix(0.05,0,0,0.05,68.75,0)" xlink:href="#bz"/><use transform="matrix(0.05,0,0,0.05,78.75,0)" xlink:href="#bC"/><use transform="matrix(0.05,0,0,0.05,88.75,0)" xlink:href="#bF"/></g><g id="am"><use transform="matrix(0.05,0,0,0.05,0,0)" xlink:href="#ca"/><use transform="matrix(0.05,0,0,0.05,12,0)" xlink:href="#bA"/><use transform="matrix(0.05,0,0,0.05,21,0)" xlink:href="#bH"/><use transform="matrix(0.05,0,0,0.05,26,0)" xlink:href="#bE"/><use transform="matrix(0.05,0,0,0.05,36,0)" xlink:href="#bF"/></g></defs></g></svg>